<svg width="1075" height="1075" viewBox="0 0 1075 1075" fill="none" xmlns="http://www.w3.org/2000/svg">
<g clip-path="url(#clip0_119_34818)">
<mask id="mask0_119_34818" style="mask-type:luminance" maskUnits="userSpaceOnUse" x="0" y="0" width="1075" height="1075">
<path d="M1075 0H0V1075H1075V0Z" fill="white"/>
</mask>
<g mask="url(#mask0_119_34818)">
<path opacity="0.04" d="M435.343 933.483L521.592 1020.51L607.84 933.483L521.592 846.46L435.343 933.483Z" fill="white"/>
<path opacity="0.04" d="M943.116 1017.76C918.64 1017.76 898.797 1037.78 898.797 1062.48C898.797 1087.18 918.64 1107.2 943.116 1107.2C967.594 1107.2 987.437 1087.18 987.437 1062.48C987.437 1037.78 967.594 1017.76 943.116 1017.76Z" fill="white"/>
<path opacity="0.04" fill-rule="evenodd" clip-rule="evenodd" d="M193.52 1215.1L63.7965 1255.66L-191.934 581.236L-62.2087 540.675C-42.4078 534.484 -20.8288 544.039 -14.0108 562.021C-10.1488 572.208 -11.7581 583.446 -18.3601 592.394C-44.6441 628.026 -34.1435 676.259 5.09421 700.126C11.5662 704.065 18.6002 707.181 26.0013 709.388L30.424 710.707C70.8564 722.766 92.8678 762.307 79.5875 799.021C76.9202 806.397 72.9211 813.314 67.7528 819.496C42.0198 850.278 48.6377 894.173 82.5343 917.54C89.3417 922.233 96.9617 925.866 105.082 928.287L113.927 930.925C154.36 942.984 176.372 982.525 163.091 1019.24C160.424 1026.61 156.424 1033.53 151.256 1039.71C125.523 1070.5 132.141 1114.39 166.037 1137.76C172.846 1142.45 180.466 1146.08 188.586 1148.51L193.008 1149.82C212.905 1155.76 223.735 1175.22 217.2 1193.28C213.499 1203.52 204.736 1211.59 193.52 1215.1Z" fill="white"/>
<path fill-rule="evenodd" clip-rule="evenodd" d="M18.5521 415.027C14.1606 415.027 10.6006 418.62 10.6006 423.05C10.6006 427.479 14.1606 431.072 18.5521 431.072C22.9435 431.072 26.5035 427.479 26.5035 423.05C26.5035 418.62 22.9435 415.027 18.5521 415.027Z" fill="white" fill-opacity="0.04"/>
<path fill-rule="evenodd" clip-rule="evenodd" d="M73.3282 415.027C68.9369 415.027 65.377 418.62 65.377 423.05C65.377 427.479 68.9369 431.072 73.3282 431.072C77.7198 431.072 81.2797 427.479 81.2797 423.05C81.2797 418.62 77.7198 415.027 73.3282 415.027Z" fill="white" fill-opacity="0.04"/>
<path fill-rule="evenodd" clip-rule="evenodd" d="M128.104 415.027C123.712 415.027 120.152 418.62 120.152 423.05C120.152 427.479 123.712 431.072 128.104 431.072C132.495 431.072 136.055 427.479 136.055 423.05C136.055 418.62 132.495 415.027 128.104 415.027Z" fill="white" fill-opacity="0.04"/>
<path fill-rule="evenodd" clip-rule="evenodd" d="M18.5521 359.759C14.1606 359.759 10.6006 363.352 10.6006 367.782C10.6006 372.214 14.1606 375.804 18.5521 375.804C22.9435 375.804 26.5035 372.214 26.5035 367.782C26.5035 363.352 22.9435 359.759 18.5521 359.759Z" fill="white" fill-opacity="0.04"/>
<path fill-rule="evenodd" clip-rule="evenodd" d="M73.3282 359.759C68.9369 359.759 65.377 363.352 65.377 367.782C65.377 372.214 68.9369 375.804 73.3282 375.804C77.7198 375.804 81.2797 372.214 81.2797 367.782C81.2797 363.352 77.7198 359.759 73.3282 359.759Z" fill="white" fill-opacity="0.04"/>
<path fill-rule="evenodd" clip-rule="evenodd" d="M128.104 359.759C123.712 359.759 120.152 363.352 120.152 367.782C120.152 372.214 123.712 375.804 128.104 375.804C132.495 375.804 136.055 372.214 136.055 367.782C136.055 363.352 132.495 359.759 128.104 359.759Z" fill="white" fill-opacity="0.04"/>
<path fill-rule="evenodd" clip-rule="evenodd" d="M18.5521 304.491C14.1606 304.491 10.6006 308.082 10.6006 312.514C10.6006 316.946 14.1606 320.539 18.5521 320.539C22.9435 320.539 26.5035 316.946 26.5035 312.514C26.5035 308.082 22.9435 304.491 18.5521 304.491Z" fill="white" fill-opacity="0.04"/>
<path fill-rule="evenodd" clip-rule="evenodd" d="M73.3282 304.491C68.9369 304.491 65.377 308.082 65.377 312.514C65.377 316.946 68.9369 320.539 73.3282 320.539C77.7198 320.539 81.2797 316.946 81.2797 312.514C81.2797 308.082 77.7198 304.491 73.3282 304.491Z" fill="white" fill-opacity="0.04"/>
<path fill-rule="evenodd" clip-rule="evenodd" d="M128.104 304.491C123.712 304.491 120.152 308.082 120.152 312.514C120.152 316.946 123.712 320.539 128.104 320.539C132.495 320.539 136.055 316.946 136.055 312.514C136.055 308.082 132.495 304.491 128.104 304.491Z" fill="white" fill-opacity="0.04"/>
<path fill-rule="evenodd" clip-rule="evenodd" d="M18.5521 249.223C14.1606 249.223 10.6006 252.816 10.6006 257.248C10.6006 261.678 14.1606 265.269 18.5521 265.269C22.9435 265.269 26.5035 261.678 26.5035 257.248C26.5035 252.816 22.9435 249.223 18.5521 249.223Z" fill="white" fill-opacity="0.04"/>
<path fill-rule="evenodd" clip-rule="evenodd" d="M73.3282 249.223C68.9369 249.223 65.377 252.816 65.377 257.248C65.377 261.678 68.9369 265.269 73.3282 265.269C77.7198 265.269 81.2797 261.678 81.2797 257.248C81.2797 252.816 77.7198 249.223 73.3282 249.223Z" fill="white" fill-opacity="0.04"/>
<path fill-rule="evenodd" clip-rule="evenodd" d="M128.104 249.223C123.712 249.223 120.152 252.816 120.152 257.248C120.152 261.678 123.712 265.269 128.104 265.269C132.495 265.269 136.055 261.678 136.055 257.248C136.055 252.816 132.495 249.223 128.104 249.223Z" fill="white" fill-opacity="0.04"/>
<path fill-rule="evenodd" clip-rule="evenodd" d="M18.5521 193.957C14.1606 193.957 10.6006 197.548 10.6006 201.979C10.6006 206.41 14.1606 210.001 18.5521 210.001C22.9435 210.001 26.5035 206.41 26.5035 201.979C26.5035 197.548 22.9435 193.957 18.5521 193.957Z" fill="white" fill-opacity="0.04"/>
<path fill-rule="evenodd" clip-rule="evenodd" d="M73.3282 193.957C68.9369 193.957 65.377 197.548 65.377 201.979C65.377 206.41 68.9369 210.001 73.3282 210.001C77.7198 210.001 81.2797 206.41 81.2797 201.979C81.2797 197.548 77.7198 193.957 73.3282 193.957Z" fill="white" fill-opacity="0.04"/>
<path fill-rule="evenodd" clip-rule="evenodd" d="M128.104 193.957C123.712 193.957 120.152 197.548 120.152 201.979C120.152 206.41 123.712 210.001 128.104 210.001C132.495 210.001 136.055 206.41 136.055 201.979C136.055 197.548 132.495 193.957 128.104 193.957Z" fill="white" fill-opacity="0.04"/>
<path fill-rule="evenodd" clip-rule="evenodd" d="M18.5521 138.688C14.1606 138.688 10.6006 142.28 10.6006 146.711C10.6006 151.142 14.1606 154.734 18.5521 154.734C22.9435 154.734 26.5035 151.142 26.5035 146.711C26.5035 142.28 22.9435 138.688 18.5521 138.688Z" fill="white" fill-opacity="0.04"/>
<path fill-rule="evenodd" clip-rule="evenodd" d="M73.3282 138.688C68.9369 138.688 65.377 142.28 65.377 146.711C65.377 151.142 68.9369 154.734 73.3282 154.734C77.7198 154.734 81.2797 151.142 81.2797 146.711C81.2797 142.28 77.7198 138.688 73.3282 138.688Z" fill="white" fill-opacity="0.04"/>
<path fill-rule="evenodd" clip-rule="evenodd" d="M128.104 138.688C123.712 138.688 120.152 142.28 120.152 146.711C120.152 151.142 123.712 154.734 128.104 154.734C132.495 154.734 136.055 151.142 136.055 146.711C136.055 142.28 132.495 138.688 128.104 138.688Z" fill="white" fill-opacity="0.04"/>
<path fill-rule="evenodd" clip-rule="evenodd" d="M18.5521 83.4209C14.1606 83.4209 10.6006 87.0124 10.6006 91.4433C10.6006 95.8742 14.1606 99.4663 18.5521 99.4663C22.9435 99.4663 26.5035 95.8742 26.5035 91.4433C26.5035 87.0124 22.9435 83.4209 18.5521 83.4209Z" fill="white" fill-opacity="0.04"/>
<path fill-rule="evenodd" clip-rule="evenodd" d="M73.3282 83.4209C68.9369 83.4209 65.377 87.0124 65.377 91.4433C65.377 95.8742 68.9369 99.4663 73.3282 99.4663C77.7198 99.4663 81.2797 95.8742 81.2797 91.4433C81.2797 87.0124 77.7198 83.4209 73.3282 83.4209Z" fill="white" fill-opacity="0.04"/>
<path fill-rule="evenodd" clip-rule="evenodd" d="M128.104 83.4209C123.712 83.4209 120.152 87.0124 120.152 91.4433C120.152 95.8742 123.712 99.4663 128.104 99.4663C132.495 99.4663 136.055 95.8742 136.055 91.4433C136.055 87.0124 132.495 83.4209 128.104 83.4209Z" fill="white" fill-opacity="0.04"/>
</g>
</g>
<defs>
<clipPath id="clip0_119_34818">
<rect width="1075" height="1075" fill="white"/>
</clipPath>
</defs>
</svg>
