<svg width="1073" height="1073" viewBox="0 0 1073 1073" fill="none" xmlns="http://www.w3.org/2000/svg">
<g clip-path="url(#clip0_119_34789)">
<mask id="mask0_119_34789" style="mask-type:luminance" maskUnits="userSpaceOnUse" x="0" y="0" width="1073" height="1073">
<path d="M1073 0H0V1073H1073V0Z" fill="white"/>
</mask>
<g mask="url(#mask0_119_34789)">
<path opacity="0.04" d="M916.282 1056.42L966.326 1106.92L1016.37 1056.42L966.326 1005.93L916.282 1056.42Z" fill="white"/>
<path opacity="0.04" d="M809.34 924.814C784.904 924.814 765.094 944.799 765.094 969.448C765.094 994.099 784.904 1014.08 809.34 1014.08C833.776 1014.08 853.584 994.099 853.584 969.448C853.584 944.799 833.776 924.814 809.34 924.814Z" fill="white"/>
<path opacity="0.04" fill-rule="evenodd" clip-rule="evenodd" d="M1051.35 324.505C1051.35 324.505 1114.43 302.092 1154.65 326.371C1194.86 350.647 1195.08 853.566 1142.89 863.37C1090.7 873.179 1039.6 861.507 1039.6 861.507C1023.83 861.222 1011.31 849.386 1011.63 835.067C1011.79 826.958 1016.15 819.392 1023.36 814.618C1052.12 795.617 1058.47 759.046 1037.54 732.933C1034.08 728.627 1030.01 724.769 1025.4 721.466L1022.65 719.491C997.515 701.446 993.243 668.313 1013.12 645.479C1017.11 640.896 1021.9 636.947 1027.33 633.793C1054.31 618.09 1062.16 585.498 1044.86 560.998C1041.39 556.077 1037.05 551.716 1031.99 548.092L1026.49 544.145C1001.35 526.1 997.081 492.964 1016.96 470.133C1020.94 465.548 1025.74 461.599 1031.17 458.444C1058.15 442.742 1065.99 410.152 1048.7 385.651C1045.23 380.731 1040.89 376.367 1035.83 372.746L1033.08 370.771C1020.71 361.891 1018.62 345.585 1028.39 334.351C1033.92 327.988 1042.43 324.344 1051.35 324.505Z" fill="white"/>
<path fill-rule="evenodd" clip-rule="evenodd" d="M373.695 1054.14C369.321 1054.14 365.767 1057.72 365.767 1062.15C365.767 1066.57 369.321 1070.15 373.695 1070.15C378.086 1070.15 381.638 1066.57 381.638 1062.15C381.638 1057.72 378.086 1054.14 373.695 1054.14Z" fill="white" fill-opacity="0.04"/>
<path fill-rule="evenodd" clip-rule="evenodd" d="M428.363 1054.14C423.989 1054.14 420.435 1057.72 420.435 1062.15C420.435 1066.57 423.989 1070.15 428.363 1070.15C432.754 1070.15 436.306 1066.57 436.306 1062.15C436.306 1057.72 432.754 1054.14 428.363 1054.14Z" fill="white" fill-opacity="0.04"/>
<path fill-rule="evenodd" clip-rule="evenodd" d="M483.051 1054.14C478.66 1054.14 475.105 1057.72 475.105 1062.15C475.105 1066.57 478.66 1070.15 483.051 1070.15C487.425 1070.15 490.977 1066.57 490.977 1062.15C490.977 1057.72 487.425 1054.14 483.051 1054.14Z" fill="white" fill-opacity="0.04"/>
<path fill-rule="evenodd" clip-rule="evenodd" d="M537.72 1054.14C533.329 1054.14 529.774 1057.72 529.774 1062.15C529.774 1066.57 533.329 1070.15 537.72 1070.15C542.111 1070.15 545.663 1066.57 545.663 1062.15C545.663 1057.72 542.111 1054.14 537.72 1054.14Z" fill="white" fill-opacity="0.04"/>
<path fill-rule="evenodd" clip-rule="evenodd" d="M319.024 1054.14C314.635 1054.14 311.081 1057.72 311.081 1062.15C311.081 1066.57 314.635 1070.15 319.024 1070.15C323.401 1070.15 326.953 1066.57 326.953 1062.15C326.953 1057.72 323.401 1054.14 319.024 1054.14Z" fill="white" fill-opacity="0.04"/>
<path fill-rule="evenodd" clip-rule="evenodd" d="M264.338 1054.14C259.964 1054.14 256.412 1057.72 256.412 1062.15C256.412 1066.57 259.964 1070.15 264.338 1070.15C268.729 1070.15 272.284 1066.57 272.284 1062.15C272.284 1057.72 268.729 1054.14 264.338 1054.14Z" fill="white" fill-opacity="0.04"/>
<path fill-rule="evenodd" clip-rule="evenodd" d="M209.67 1054.14C205.296 1054.14 201.743 1057.72 201.743 1062.15C201.743 1066.57 205.296 1070.15 209.67 1070.15C214.061 1070.15 217.614 1066.57 217.614 1062.15C217.614 1057.72 214.061 1054.14 209.67 1054.14Z" fill="white" fill-opacity="0.04"/>
<path fill-rule="evenodd" clip-rule="evenodd" d="M373.695 998.973C369.321 998.973 365.767 1002.56 365.767 1006.98C365.767 1011.4 369.321 1014.99 373.695 1014.99C378.086 1014.99 381.638 1011.4 381.638 1006.98C381.638 1002.56 378.086 998.973 373.695 998.973Z" fill="white" fill-opacity="0.04"/>
<path fill-rule="evenodd" clip-rule="evenodd" d="M428.363 998.973C423.989 998.973 420.435 1002.56 420.435 1006.98C420.435 1011.4 423.989 1014.99 428.363 1014.99C432.754 1014.99 436.306 1011.4 436.306 1006.98C436.306 1002.56 432.754 998.973 428.363 998.973Z" fill="white" fill-opacity="0.04"/>
<path fill-rule="evenodd" clip-rule="evenodd" d="M483.051 998.973C478.66 998.973 475.105 1002.56 475.105 1006.98C475.105 1011.4 478.66 1014.99 483.051 1014.99C487.425 1014.99 490.977 1011.4 490.977 1006.98C490.977 1002.56 487.425 998.973 483.051 998.973Z" fill="white" fill-opacity="0.04"/>
<path fill-rule="evenodd" clip-rule="evenodd" d="M537.72 998.973C533.329 998.973 529.774 1002.56 529.774 1006.98C529.774 1011.4 533.329 1014.99 537.72 1014.99C542.111 1014.99 545.663 1011.4 545.663 1006.98C545.663 1002.56 542.111 998.973 537.72 998.973Z" fill="white" fill-opacity="0.04"/>
<path fill-rule="evenodd" clip-rule="evenodd" d="M319.024 998.973C314.635 998.973 311.081 1002.56 311.081 1006.98C311.081 1011.4 314.635 1014.99 319.024 1014.99C323.401 1014.99 326.953 1011.4 326.953 1006.98C326.953 1002.56 323.401 998.973 319.024 998.973Z" fill="white" fill-opacity="0.04"/>
<path fill-rule="evenodd" clip-rule="evenodd" d="M264.338 998.973C259.964 998.973 256.412 1002.56 256.412 1006.98C256.412 1011.4 259.964 1014.99 264.338 1014.99C268.729 1014.99 272.284 1011.4 272.284 1006.98C272.284 1002.56 268.729 998.973 264.338 998.973Z" fill="white" fill-opacity="0.04"/>
<path fill-rule="evenodd" clip-rule="evenodd" d="M209.67 998.973C205.296 998.973 201.743 1002.56 201.743 1006.98C201.743 1011.4 205.296 1014.99 209.67 1014.99C214.061 1014.99 217.614 1011.4 217.614 1006.98C217.614 1002.56 214.061 998.973 209.67 998.973Z" fill="white" fill-opacity="0.04"/>
<path fill-rule="evenodd" clip-rule="evenodd" d="M373.695 943.808C369.321 943.808 365.767 947.394 365.767 951.815C365.767 956.239 369.321 959.823 373.695 959.823C378.086 959.823 381.638 956.239 381.638 951.815C381.638 947.394 378.086 943.808 373.695 943.808Z" fill="white" fill-opacity="0.04"/>
<path fill-rule="evenodd" clip-rule="evenodd" d="M428.363 943.808C423.989 943.808 420.435 947.394 420.435 951.815C420.435 956.239 423.989 959.823 428.363 959.823C432.754 959.823 436.306 956.239 436.306 951.815C436.306 947.394 432.754 943.808 428.363 943.808Z" fill="white" fill-opacity="0.04"/>
<path fill-rule="evenodd" clip-rule="evenodd" d="M483.051 943.808C478.66 943.808 475.105 947.394 475.105 951.815C475.105 956.239 478.66 959.823 483.051 959.823C487.425 959.823 490.977 956.239 490.977 951.815C490.977 947.394 487.425 943.808 483.051 943.808Z" fill="white" fill-opacity="0.04"/>
<path fill-rule="evenodd" clip-rule="evenodd" d="M537.72 943.808C533.329 943.808 529.774 947.394 529.774 951.815C529.774 956.239 533.329 959.823 537.72 959.823C542.111 959.823 545.663 956.239 545.663 951.815C545.663 947.394 542.111 943.808 537.72 943.808Z" fill="white" fill-opacity="0.04"/>
<path fill-rule="evenodd" clip-rule="evenodd" d="M319.024 943.808C314.635 943.808 311.081 947.394 311.081 951.815C311.081 956.239 314.635 959.823 319.024 959.823C323.401 959.823 326.953 956.239 326.953 951.815C326.953 947.394 323.401 943.808 319.024 943.808Z" fill="white" fill-opacity="0.04"/>
<path fill-rule="evenodd" clip-rule="evenodd" d="M264.338 943.808C259.964 943.808 256.412 947.394 256.412 951.815C256.412 956.239 259.964 959.823 264.338 959.823C268.729 959.823 272.284 956.239 272.284 951.815C272.284 947.394 268.729 943.808 264.338 943.808Z" fill="white" fill-opacity="0.04"/>
<path fill-rule="evenodd" clip-rule="evenodd" d="M209.67 943.808C205.296 943.808 201.743 947.394 201.743 951.815C201.743 956.239 205.296 959.823 209.67 959.823C214.061 959.823 217.614 956.239 217.614 951.815C217.614 947.394 214.061 943.808 209.67 943.808Z" fill="white" fill-opacity="0.04"/>
</g>
</g>
<defs>
<clipPath id="clip0_119_34789">
<rect width="1073" height="1073" fill="white"/>
</clipPath>
</defs>
</svg>
