<svg width="48" height="40" viewBox="0 0 48 40" fill="none" xmlns="http://www.w3.org/2000/svg">
<path d="M30 0H10C4.47715 0 0 4.47715 0 10V30C0 35.5228 4.47715 40 10 40H30C35.5228 40 40 35.5228 40 30V10C40 4.47715 35.5228 0 30 0Z" fill="#29BC89"/>
<path d="M31 30.8667L36.25 36L46 25" stroke="white" stroke-width="4" stroke-linecap="round" stroke-linejoin="round"/>
<path d="M8.01136 13.3636H11.0455L14.25 21.1818H14.3864L17.5909 13.3636H20.625V25H18.2386V17.4261H18.142L15.1307 24.9432H13.5057L10.4943 17.3977H10.3977V25H8.01136V13.3636Z" fill="white"/>
<path d="M24.7543 13.3636L27.5668 22.2045H27.6747L30.4929 13.3636H33.2202L29.2088 25H26.0384L22.0213 13.3636H24.7543Z" fill="#0F4331"/>
</svg>
